<svg xmlns="http://www.w3.org/2000/svg" width="320" height="320" viewBox="0 0 320 320" font-family="sans-serif" font-size="10">
<rect width="320" height="320" fill="white"/>
<text x="160.0" y="18" text-anchor="middle" font-size="12">change_mask - after (affine)</text>
<rect x="44.0" y="234.2" width="15.5" height="41.8" fill="#c8d6e5"/>
<rect x="59.5" y="275.8" width="15.5" height="0.2" fill="#c8d6e5"/>
<rect x="74.9" y="275.9" width="15.5" height="0.1" fill="#c8d6e5"/>
<rect x="90.4" y="275.9" width="15.5" height="0.1" fill="#c8d6e5"/>
<rect x="105.9" y="276.0" width="15.5" height="0.0" fill="#c8d6e5"/>
<rect x="121.3" y="276.0" width="15.5" height="0.0" fill="#c8d6e5"/>
<rect x="136.8" y="276.0" width="15.5" height="0.0" fill="#c8d6e5"/>
<rect x="152.3" y="276.0" width="15.5" height="0.0" fill="#c8d6e5"/>
<rect x="167.7" y="276.0" width="15.5" height="0.0" fill="#c8d6e5"/>
<rect x="183.2" y="276.0" width="15.5" height="0.0" fill="#c8d6e5"/>
<rect x="198.7" y="276.0" width="15.5" height="0.0" fill="#c8d6e5"/>
<rect x="214.1" y="275.9" width="15.5" height="0.1" fill="#c8d6e5"/>
<rect x="229.6" y="275.9" width="15.5" height="0.1" fill="#c8d6e5"/>
<rect x="245.1" y="275.8" width="15.5" height="0.2" fill="#c8d6e5"/>
<rect x="260.5" y="274.7" width="15.5" height="1.3" fill="#c8d6e5"/>
<rect x="44.0" y="275.7" width="15.5" height="0.3" fill="#2e86de" fill-opacity="0.55" stroke="#1b4f72" stroke-width="0.5"/>
<rect x="59.5" y="237.0" width="15.5" height="39.0" fill="#2e86de" fill-opacity="0.55" stroke="#1b4f72" stroke-width="0.5"/>
<rect x="74.9" y="217.1" width="15.5" height="58.9" fill="#2e86de" fill-opacity="0.55" stroke="#1b4f72" stroke-width="0.5"/>
<rect x="90.4" y="209.0" width="15.5" height="67.0" fill="#2e86de" fill-opacity="0.55" stroke="#1b4f72" stroke-width="0.5"/>
<rect x="105.9" y="199.5" width="15.5" height="76.5" fill="#2e86de" fill-opacity="0.55" stroke="#1b4f72" stroke-width="0.5"/>
<rect x="121.3" y="185.5" width="15.5" height="90.5" fill="#2e86de" fill-opacity="0.55" stroke="#1b4f72" stroke-width="0.5"/>
<rect x="136.8" y="180.3" width="15.5" height="95.7" fill="#2e86de" fill-opacity="0.55" stroke="#1b4f72" stroke-width="0.5"/>
<rect x="152.3" y="163.4" width="15.5" height="112.6" fill="#2e86de" fill-opacity="0.55" stroke="#1b4f72" stroke-width="0.5"/>
<rect x="167.7" y="147.5" width="15.5" height="128.5" fill="#2e86de" fill-opacity="0.55" stroke="#1b4f72" stroke-width="0.5"/>
<rect x="183.2" y="132.4" width="15.5" height="143.6" fill="#2e86de" fill-opacity="0.55" stroke="#1b4f72" stroke-width="0.5"/>
<rect x="198.7" y="126.4" width="15.5" height="149.6" fill="#2e86de" fill-opacity="0.55" stroke="#1b4f72" stroke-width="0.5"/>
<rect x="214.1" y="106.2" width="15.5" height="169.8" fill="#2e86de" fill-opacity="0.55" stroke="#1b4f72" stroke-width="0.5"/>
<rect x="229.6" y="86.6" width="15.5" height="189.4" fill="#2e86de" fill-opacity="0.55" stroke="#1b4f72" stroke-width="0.5"/>
<rect x="245.1" y="74.0" width="15.5" height="202.0" fill="#2e86de" fill-opacity="0.55" stroke="#1b4f72" stroke-width="0.5"/>
<rect x="260.5" y="47.6" width="15.5" height="228.4" fill="#2e86de" fill-opacity="0.55" stroke="#1b4f72" stroke-width="0.5"/>
<line x1="44" y1="276" x2="276" y2="44" stroke="#c0392b" stroke-width="1" stroke-dasharray="4 3"/>
<rect x="44" y="44" width="232" height="232" fill="none" stroke="#333" stroke-width="1"/>
<text x="160.0" y="308" text-anchor="middle">confidence</text>
<text x="14" y="160.0" text-anchor="middle" transform="rotate(-90 14 160.0)">observed frequency</text>
<text x="48" y="58">ECE 0.0011 | MCE 0.0904 | n=524,288</text>
</svg>