<svg xmlns="http://www.w3.org/2000/svg" width="320" height="320" viewBox="0 0 320 320" font-family="sans-serif" font-size="10">
<rect width="320" height="320" fill="white"/>
<text x="160.0" y="18" text-anchor="middle" font-size="12">landcover - after (temperature)</text>
<rect x="44.0" y="234.2" width="15.5" height="41.8" fill="#c8d6e5"/>
<rect x="59.5" y="273.1" width="15.5" height="2.9" fill="#c8d6e5"/>
<rect x="74.9" y="274.3" width="15.5" height="1.7" fill="#c8d6e5"/>
<rect x="90.4" y="274.8" width="15.5" height="1.2" fill="#c8d6e5"/>
<rect x="105.9" y="275.0" width="15.5" height="1.0" fill="#c8d6e5"/>
<rect x="121.3" y="275.1" width="15.5" height="0.9" fill="#c8d6e5"/>
<rect x="136.8" y="275.2" width="15.5" height="0.8" fill="#c8d6e5"/>
<rect x="152.3" y="275.3" width="15.5" height="0.7" fill="#c8d6e5"/>
<rect x="167.7" y="275.3" width="15.5" height="0.7" fill="#c8d6e5"/>
<rect x="183.2" y="275.4" width="15.5" height="0.6" fill="#c8d6e5"/>
<rect x="198.7" y="275.4" width="15.5" height="0.6" fill="#c8d6e5"/>
<rect x="214.1" y="275.3" width="15.5" height="0.7" fill="#c8d6e5"/>
<rect x="229.6" y="275.2" width="15.5" height="0.8" fill="#c8d6e5"/>
<rect x="245.1" y="275.1" width="15.5" height="0.9" fill="#c8d6e5"/>
<rect x="260.5" y="272.6" width="15.5" height="3.4" fill="#c8d6e5"/>
<rect x="44.0" y="274.6" width="15.5" height="1.4" fill="#2e86de" fill-opacity="0.55" stroke="#1b4f72" stroke-width="0.5"/>
<rect x="59.5" y="255.2" width="15.5" height="20.8" fill="#2e86de" fill-opacity="0.55" stroke="#1b4f72" stroke-width="0.5"/>
<rect x="74.9" y="238.6" width="15.5" height="37.4" fill="#2e86de" fill-opacity="0.55" stroke="#1b4f72" stroke-width="0.5"/>
<rect x="90.4" y="222.8" width="15.5" height="53.2" fill="#2e86de" fill-opacity="0.55" stroke="#1b4f72" stroke-width="0.5"/>
<rect x="105.9" y="203.9" width="15.5" height="72.1" fill="#2e86de" fill-opacity="0.55" stroke="#1b4f72" stroke-width="0.5"/>
<rect x="121.3" y="190.5" width="15.5" height="85.5" fill="#2e86de" fill-opacity="0.55" stroke="#1b4f72" stroke-width="0.5"/>
<rect x="136.8" y="177.9" width="15.5" height="98.1" fill="#2e86de" fill-opacity="0.55" stroke="#1b4f72" stroke-width="0.5"/>
<rect x="152.3" y="162.2" width="15.5" height="113.8" fill="#2e86de" fill-opacity="0.55" stroke="#1b4f72" stroke-width="0.5"/>
<rect x="167.7" y="146.7" width="15.5" height="129.3" fill="#2e86de" fill-opacity="0.55" stroke="#1b4f72" stroke-width="0.5"/>
<rect x="183.2" y="125.4" width="15.5" height="150.6" fill="#2e86de" fill-opacity="0.55" stroke="#1b4f72" stroke-width="0.5"/>
<rect x="198.7" y="117.9" width="15.5" height="158.1" fill="#2e86de" fill-opacity="0.55" stroke="#1b4f72" stroke-width="0.5"/>
<rect x="214.1" y="101.1" width="15.5" height="174.9" fill="#2e86de" fill-opacity="0.55" stroke="#1b4f72" stroke-width="0.5"/>
<rect x="229.6" y="89.0" width="15.5" height="187.0" fill="#2e86de" fill-opacity="0.55" stroke="#1b4f72" stroke-width="0.5"/>
<rect x="245.1" y="70.7" width="15.5" height="205.3" fill="#2e86de" fill-opacity="0.55" stroke="#1b4f72" stroke-width="0.5"/>
<rect x="260.5" y="49.5" width="15.5" height="226.5" fill="#2e86de" fill-opacity="0.55" stroke="#1b4f72" stroke-width="0.5"/>
<line x1="44" y1="276" x2="276" y2="44" stroke="#c0392b" stroke-width="1" stroke-dasharray="4 3"/>
<rect x="44" y="44" width="232" height="232" fill="none" stroke="#333" stroke-width="1"/>
<text x="160.0" y="308" text-anchor="middle">confidence</text>
<text x="14" y="160.0" text-anchor="middle" transform="rotate(-90 14 160.0)">observed frequency</text>
<text x="48" y="58">ECE 0.0034 | MCE 0.0275 | n=190,000</text>
</svg>